<?xml version="1.0" standalone="no"?>
<!DOCTYPE svg PUBLIC "-//W3C//DTD SVG 20010904//EN"
 "http://www.w3.org/TR/2001/REC-SVG-20010904/DTD/svg10.dtd">
<svg version="1.0" xmlns="http://www.w3.org/2000/svg"
 width="48.000000pt" height="48.000000pt" viewBox="0 0 48.000000 48.000000"
 preserveAspectRatio="xMidYMid meet">

<g transform="translate(0.000000,48.000000) scale(0.100000,-0.100000)"
fill="currentColor" stroke="none">
<path d="M99 378 c-52 -62 -89 -131 -89 -167 0 -42 36 -90 83 -111 60 -28 224
-28 284 0 46 21 83 69 83 111 0 36 -43 116 -95 174 -35 40 -46 48 -56 38 -15
-15 -135 -18 -144 -3 -11 18 -21 11 -66 -42z m66 32 c9 -14 128 -13 143 2 25
25 142 -140 142 -199 0 -42 -29 -84 -73 -104 -60 -27 -224 -27 -284 0 -44 20
-73 62 -73 104 0 33 37 103 85 160 41 49 49 54 60 37z"/>
<path d="M154 259 c-10 -17 13 -36 27 -22 12 12 4 33 -11 33 -5 0 -12 -5 -16
-11z"/>
<path d="M284 259 c-10 -17 13 -36 27 -22 12 12 4 33 -11 33 -5 0 -12 -5 -16
-11z"/>
<path d="M224 245 c3 -10 -1 -15 -11 -15 -14 0 -14 -2 2 -20 17 -19 19 -19 38
-3 16 15 17 18 4 21 -9 2 -14 9 -10 18 3 9 -1 14 -12 14 -11 0 -15 -5 -11 -15z
m26 -29 c0 -11 -19 -15 -25 -6 -3 5 1 10 9 10 9 0 16 -2 16 -4z"/>
</g>
</svg>
